<?xml version="1.0" encoding="utf-8"?>
<!-- Generator: $$$/GeneralStr/196=Adobe Illustrator 27.6.0, SVG Export Plug-In . SVG Version: 6.00 Build 0)  -->
<svg version="1.1" id="Calque_1" xmlns="http://www.w3.org/2000/svg" xmlns:xlink="http://www.w3.org/1999/xlink" x="0px" y="0px"
	 viewBox="0 0 47.8 56" style="enable-background:new 0 0 47.8 56;" xml:space="preserve">
<style type="text/css">
	.st0{fill:#FFFFFF;}
	.st1{fill:#FFDE12;}
	.st2{fill:#E94258;}
	.st3{fill:#00B1AA;}
	.st4{fill:#12314E;}
</style>
<path class="st0" d="M47.8,0H0v56h47.8V0z"/>
<path class="st1" d="M15.9,16H0V0L15.9,16z"/>
<path class="st2" d="M23.9,0h-8v16h8V0z"/>
<path class="st1" d="M31.8,16v16c-4.4,0-8-3.6-8-8S27.4,16,31.8,16"/>
<path class="st3" d="M31.8,16V0c4.4,0,8,3.6,8,8C39.8,12.4,36.2,16,31.8,16"/>
<path class="st4" d="M47.8,32H31.8V16L47.8,32z"/>
<path class="st3" d="M15.9,24H0v8h15.9V24z"/>
<path class="st4" d="M0,48V32h15.9L0,48z"/>
<path class="st1" d="M19.9,56H4c0-4.4,3.6-8,8-8C16.3,48,19.9,51.6,19.9,56z"/>
<path class="st2" d="M31.8,56V40H15.9L31.8,56z"/>
<path class="st3" d="M47.8,40H31.8v8h15.9V40z"/>
</svg>
