<?xml version="1.0" encoding="utf-8"?>
<!-- Generator: $$$/GeneralStr/196=Adobe Illustrator 27.6.0, SVG Export Plug-In . SVG Version: 6.00 Build 0)  -->
<svg version="1.1" id="Calque_1" xmlns="http://www.w3.org/2000/svg" xmlns:xlink="http://www.w3.org/1999/xlink" x="0px" y="0px"
	 viewBox="0 0 616 410" style="enable-background:new 0 0 616 410;" xml:space="preserve">
<style type="text/css">
	.st0{fill:#D9D9D9;}
	.st1{opacity:0.3;fill:#12314E;enable-background:new    ;}
</style>
<rect class="st0" width="616" height="410"/>
<path class="st1" d="M288,192.5c0-2.7,2.2-5,5-5h30c2.7,0,5,2.3,5,5v25c0,2.8-2.3,5-5,5h-30c-2.8,0-5-2.2-5-5V192.5z M313.2,200.9
	c-0.3-0.5-0.9-0.9-1.5-0.9c-0.6,0-1.2,0.3-1.6,0.9l-6.8,10l-2.1-2.7c-0.3-0.4-0.9-0.7-1.4-0.7c-0.6,0-1.2,0.3-1.5,0.7l-5,6.2
	c-0.5,0.6-0.5,1.4-0.2,2s0.9,1,1.7,1h7.5h2.5h16.2c0.6,0,1.3-0.3,1.6-0.9s0.2-1.4-0.2-2L313.2,200.9z M296.8,200
	c1.3,0,2.5-0.7,3.2-1.9c0.7-1.1,0.7-2.6,0-3.8c-0.7-1.1-1.9-1.9-3.2-1.9c-1.4,0-2.6,0.8-3.3,1.9c-0.7,1.2-0.7,2.7,0,3.8
	C294.2,199.3,295.3,200,296.8,200z"/>
</svg>
