<svg fill="none" width="18" height="19" viewBox="0 0 18 19" xmlns="http://www.w3.org/2000/svg">
<path fill="#ffffff" d="M15.9062 9.625C15.9062 7.16797 14.5781 4.91016 12.4531 3.64844C10.2949 2.41992 7.67188 2.41992 5.54688 3.64844C3.38867 4.91016 2.09375 7.16797 2.09375 9.625C2.09375 12.1152 3.38867 14.373 5.54688 15.6348C7.67188 16.8633 10.2949 16.8633 12.4531 15.6348C14.5781 14.373 15.9062 12.1152 15.9062 9.625ZM0.5 9.625C0.5 6.60352 2.09375 3.81445 4.75 2.28711C7.37305 0.759766 10.5938 0.759766 13.25 2.28711C15.873 3.81445 17.5 6.60352 17.5 9.625C17.5 12.6797 15.873 15.4688 13.25 16.9961C10.5938 18.5234 7.37305 18.5234 4.75 16.9961C2.09375 15.4688 0.5 12.6797 0.5 9.625ZM8.20312 5.10938C8.20312 4.67773 8.53516 4.3125 9 4.3125C9.43164 4.3125 9.79688 4.67773 9.79688 5.10938V9.22656L12.6191 11.0859C12.9844 11.3516 13.084 11.8496 12.8516 12.2148C12.5859 12.5801 12.0879 12.6797 11.7227 12.4141L8.53516 10.2891C8.33594 10.1562 8.20312 9.89062 8.20312 9.625V5.10938Z"/>
</svg>
