<svg fill="none" width="24" height="19" viewBox="0 0 24 19" xmlns="http://www.w3.org/2000/svg">
<path fill="#ffffff" d="M4.09375 11.6484C4.05859 11.7188 4.02344 11.7891 3.95312 11.8242C3.88281 12 3.77734 12.1406 3.70703 12.3164C4.30469 12.1758 4.86719 11.9297 5.42969 11.6836C5.60547 11.6133 5.74609 11.543 5.88672 11.4727C6.23828 11.2969 6.58984 11.2617 6.97656 11.332C7.39844 11.4023 7.82031 11.4375 8.3125 11.4375C11.6875 11.4375 13.9375 9.1875 13.9375 6.9375C13.9375 4.72266 11.6875 2.4375 8.3125 2.4375C4.90234 2.4375 2.6875 4.72266 2.6875 6.9375C2.6875 7.92188 3.07422 8.87109 3.8125 9.67969C4.33984 10.207 4.44531 10.9805 4.09375 11.6484ZM1 6.9375C1 3.52734 4.26953 0.75 8.3125 0.75C12.3203 0.75 15.625 3.52734 15.625 6.9375C15.625 10.3828 12.3203 13.125 8.3125 13.125C7.71484 13.125 7.1875 13.0898 6.625 12.9844C6.48438 13.0547 6.30859 13.1602 6.13281 13.2305C4.86719 13.793 3.35547 14.25 1.84375 14.25C1.49219 14.25 1.17578 14.0742 1.03516 13.7578C0.929688 13.4414 0.964844 13.0898 1.21094 12.8438C1.70312 12.2812 2.125 11.6484 2.51172 11.0156C2.54688 10.9453 2.58203 10.875 2.58203 10.8398C1.59766 9.78516 1 8.41406 1 6.9375ZM16.1875 17.625C13.3047 17.625 10.8086 16.2188 9.61328 14.1797C10.2109 14.0742 10.8086 13.9336 11.3711 13.7578C12.2852 15.0234 14.0078 15.9375 16.1523 15.9375C16.6445 15.9375 17.0664 15.9023 17.4883 15.832C17.875 15.7617 18.2266 15.7969 18.5781 15.9727C18.7188 16.043 18.8594 16.1133 19.0352 16.1836C19.5977 16.4297 20.1602 16.6406 20.7578 16.8164C20.6875 16.6406 20.582 16.5 20.5117 16.3242C20.4766 16.2539 20.4062 16.1836 20.3711 16.1133C20.0547 15.4805 20.1602 14.707 20.6523 14.1797C21.3906 13.3711 21.8125 12.4219 21.8125 11.4375C21.8125 9.36328 19.8086 7.21875 16.75 6.97266V6.9375C16.75 6.375 16.6445 5.8125 16.5039 5.28516C20.4062 5.42578 23.5 8.13281 23.5 11.4375C23.5 12.9141 22.8672 14.2852 21.8828 15.3398C21.8828 15.4102 21.918 15.4453 21.9531 15.5156C22.3398 16.1484 22.7617 16.7812 23.2539 17.3438C23.5 17.5898 23.5352 17.9414 23.4297 18.2578C23.2891 18.5742 22.9727 18.75 22.6562 18.75C21.1445 18.75 19.5977 18.293 18.332 17.7305C18.1562 17.6602 17.9805 17.5547 17.8398 17.4844C17.2773 17.5898 16.75 17.625 16.1875 17.625Z"/>
</svg>
