<svg fill="none" width="16" height="17" viewBox="0 0 16 17" xmlns="http://www.w3.org/2000/svg">
<path fill="#ffffff" d="M1.6875 2.5625V5.9375H5.0625V2.5625H1.6875ZM0 2.5625C0 1.64844 0.738281 0.875 1.6875 0.875H5.0625C5.97656 0.875 6.75 1.64844 6.75 2.5625V5.9375C6.75 6.88672 5.97656 7.625 5.0625 7.625H1.6875C0.738281 7.625 0 6.88672 0 5.9375V2.5625ZM1.6875 11.5625V14.9375H5.0625V11.5625H1.6875ZM0 11.5625C0 10.6484 0.738281 9.875 1.6875 9.875H5.0625C5.97656 9.875 6.75 10.6484 6.75 11.5625V14.9375C6.75 15.8867 5.97656 16.625 5.0625 16.625H1.6875C0.738281 16.625 0 15.8867 0 14.9375V11.5625ZM14.0625 2.5625H10.6875V5.9375H14.0625V2.5625ZM10.6875 0.875H14.0625C14.9766 0.875 15.75 1.64844 15.75 2.5625V5.9375C15.75 6.88672 14.9766 7.625 14.0625 7.625H10.6875C9.73828 7.625 9 6.88672 9 5.9375V2.5625C9 1.64844 9.73828 0.875 10.6875 0.875ZM10.6875 11.5625V14.9375H14.0625V11.5625H10.6875ZM9 11.5625C9 10.6484 9.73828 9.875 10.6875 9.875H14.0625C14.9766 9.875 15.75 10.6484 15.75 11.5625V14.9375C15.75 15.8867 14.9766 16.625 14.0625 16.625H10.6875C9.73828 16.625 9 15.8867 9 14.9375V11.5625Z"/>
</svg>
