<svg fill="none" width="18" height="18" viewBox="0 0 18 18" xmlns="http://www.w3.org/2000/svg">
<path fill="#12314e" d="M14.6426 2.08398H14.6094C14.3105 1.78516 13.8125 1.78516 13.5137 2.08398L12.5176 3.04688L14.0781 4.60742L15.041 3.61133C15.3398 3.3125 15.3398 2.81445 15.041 2.48242L14.6426 2.08398ZM6.93945 8.6582C6.83984 8.72461 6.77344 8.85742 6.74023 8.99023L6.17578 10.916L8.13477 10.3848C8.26758 10.3516 8.36719 10.2852 8.4668 10.1855L12.9492 5.70312L11.4219 4.17578L6.93945 8.6582ZM12.3848 0.955078C13.3145 0.0253906 14.8086 0.0253906 15.7383 0.955078L16.1699 1.38672C17.0996 2.31641 17.0996 3.81055 16.1699 4.74023L9.5957 11.3145C9.33008 11.5801 8.96484 11.7793 8.56641 11.9121L5.24609 12.8418C4.98047 12.9414 4.68164 12.875 4.48242 12.6426C4.25 12.4434 4.18359 12.1445 4.25 11.8789L5.21289 8.55859C5.3125 8.16016 5.54492 7.79492 5.81055 7.5293L12.3848 0.955078ZM2.92188 2.25H6.64062C7.07227 2.25 7.4375 2.61523 7.4375 3.04688C7.4375 3.51172 7.07227 3.84375 6.64062 3.84375H2.92188C2.1582 3.84375 1.59375 4.44141 1.59375 5.17188V14.2031C1.59375 14.9668 2.1582 15.5312 2.92188 15.5312H11.9531C12.6836 15.5312 13.2812 14.9668 13.2812 14.2031V10.4844C13.2812 10.0527 13.6133 9.6875 14.0781 9.6875C14.5098 9.6875 14.875 10.0527 14.875 10.4844V14.2031C14.875 15.8301 13.5469 17.125 11.9531 17.125H2.92188C1.29492 17.125 0 15.8301 0 14.2031V5.17188C0 3.57812 1.29492 2.25 2.92188 2.25Z"/>
</svg>
