<svg fill="none" width="19" height="17" viewBox="0 0 19 17" xmlns="http://www.w3.org/2000/svg">
<path fill="#ffffff" d="M17.7539 8.84766L13.2539 13.3477C12.9023 13.6992 12.375 13.6992 12.0586 13.3477C11.707 13.0312 11.707 12.5039 12.0586 12.1523L15.1172 9.09375H6.46875C5.97656 9.09375 5.625 8.74219 5.625 8.25C5.625 7.79297 5.97656 7.40625 6.46875 7.40625H15.1172L12.0586 4.34766C11.707 4.03125 11.707 3.50391 12.0586 3.15234C12.375 2.83594 12.9023 2.83594 13.2539 3.15234L17.7539 7.6875C18.0703 8.00391 18.0703 8.53125 17.7539 8.84766ZM5.90625 2.0625H3.09375C2.28516 2.0625 1.6875 2.69531 1.6875 3.46875V13.0312C1.6875 13.8398 2.28516 14.4375 3.09375 14.4375H5.90625C6.36328 14.4375 6.75 14.8242 6.75 15.2812C6.75 15.7734 6.36328 16.125 5.90625 16.125H3.09375C1.37109 16.125 0 14.7539 0 13.0312V3.46875C0 1.78125 1.37109 0.375 3.09375 0.375H5.90625C6.36328 0.375 6.75 0.761719 6.75 1.21875C6.75 1.71094 6.36328 2.0625 5.90625 2.0625Z"/>
</svg>
