<svg fill="none" width="14" height="18" viewBox="0 0 14 18" xmlns="http://www.w3.org/2000/svg">
<path fill="#ffffff" d="M11.6562 6.5C11.6562 3.87695 9.49805 1.71875 6.875 1.71875C4.21875 1.71875 2.09375 3.87695 2.09375 6.5C2.09375 6.93164 2.22656 7.5625 2.5918 8.42578C2.92383 9.22266 3.42188 10.1523 3.98633 11.082C4.94922 12.6094 6.04492 14.0703 6.875 15.1328C7.67188 14.0703 8.76758 12.6094 9.73047 11.082C10.2949 10.1523 10.793 9.22266 11.125 8.42578C11.4902 7.5625 11.6562 6.93164 11.6562 6.5ZM13.25 6.5C13.25 9.42188 9.36523 14.5684 7.63867 16.7266C7.24023 17.2246 6.47656 17.2246 6.07812 16.7266C4.38477 14.5684 0.5 9.42188 0.5 6.5C0.5 2.98047 3.35547 0.125 6.875 0.125C10.3945 0.125 13.25 2.98047 13.25 6.5ZM7.9375 6.5C7.9375 5.93555 7.43945 5.4375 6.875 5.4375C6.27734 5.4375 5.8125 5.93555 5.8125 6.5C5.8125 7.09766 6.27734 7.5625 6.875 7.5625C7.43945 7.5625 7.9375 7.09766 7.9375 6.5ZM4.21875 6.5C4.21875 5.57031 4.7168 4.70703 5.54688 4.20898C6.34375 3.74414 7.37305 3.74414 8.20312 4.20898C9 4.70703 9.53125 5.57031 9.53125 6.5C9.53125 7.46289 9 8.32617 8.20312 8.82422C7.37305 9.28906 6.34375 9.28906 5.54688 8.82422C4.7168 8.32617 4.21875 7.46289 4.21875 6.5Z"/>
</svg>
