<svg fill="none" width="18" height="17" viewBox="0 0 18 17" xmlns="http://www.w3.org/2000/svg">
<path fill="#ffffff" d="M5.90625 2.5625C5.41406 2.5625 5.0625 2.94922 5.0625 3.40625V14.0938C5.0625 14.4102 4.99219 14.6914 4.88672 14.9375H15.4688C15.9258 14.9375 16.3125 14.5859 16.3125 14.0938V3.40625C16.3125 2.94922 15.9258 2.5625 15.4688 2.5625H5.90625ZM2.53125 14.9375C2.98828 14.9375 3.375 14.5859 3.375 14.0938V3.40625C3.375 2.03516 4.5 0.875 5.90625 0.875H15.4688C16.8398 0.875 18 2.03516 18 3.40625V14.0938C18 15.5 16.8398 16.625 15.4688 16.625H2.53125C1.125 16.625 0 15.5 0 14.0938V3.6875C0 3.23047 0.351562 2.84375 0.84375 2.84375C1.30078 2.84375 1.6875 3.23047 1.6875 3.6875V14.0938C1.6875 14.5859 2.03906 14.9375 2.53125 14.9375ZM6.1875 4.53125C6.1875 4.07422 6.53906 3.6875 7.03125 3.6875H14.3438C14.8008 3.6875 15.1875 4.07422 15.1875 4.53125V7.34375C15.1875 7.83594 14.8008 8.1875 14.3438 8.1875H7.03125C6.53906 8.1875 6.1875 7.83594 6.1875 7.34375V4.53125ZM7.03125 9.3125H9.28125C9.73828 9.3125 10.125 9.69922 10.125 10.1562C10.125 10.6484 9.73828 11 9.28125 11H7.03125C6.53906 11 6.1875 10.6484 6.1875 10.1562C6.1875 9.69922 6.53906 9.3125 7.03125 9.3125ZM12.0938 9.3125H14.3438C14.8008 9.3125 15.1875 9.69922 15.1875 10.1562C15.1875 10.6484 14.8008 11 14.3438 11H12.0938C11.6016 11 11.25 10.6484 11.25 10.1562C11.25 9.69922 11.6016 9.3125 12.0938 9.3125ZM7.03125 12.125H9.28125C9.73828 12.125 10.125 12.5117 10.125 12.9688C10.125 13.4609 9.73828 13.8125 9.28125 13.8125H7.03125C6.53906 13.8125 6.1875 13.4609 6.1875 12.9688C6.1875 12.5117 6.53906 12.125 7.03125 12.125ZM12.0938 12.125H14.3438C14.8008 12.125 15.1875 12.5117 15.1875 12.9688C15.1875 13.4609 14.8008 13.8125 14.3438 13.8125H12.0938C11.6016 13.8125 11.25 13.4609 11.25 12.9688C11.25 12.5117 11.6016 12.125 12.0938 12.125Z"/>
</svg>
