<svg fill="none" width="18" height="18" viewBox="0 0 18 18" xmlns="http://www.w3.org/2000/svg">
<path fill="#ffffff" d="M12.9512 9.28906L16.6699 10.8828C17.2676 11.1152 17.5996 11.7461 17.4668 12.377L16.6699 16.0957C16.5371 16.6934 15.9727 17.1582 15.375 17.1582C15.1426 17.1582 14.9434 17.125 14.7441 17.125C14.4121 17.125 14.0801 17.0918 13.7812 17.0586C6.31055 16.2617 0.5 9.95312 0.5 2.25C0.5 1.65234 0.931641 1.08789 1.5293 0.955078L5.24805 0.158203C5.87891 0.0253906 6.50977 0.357422 6.74219 0.955078L8.33594 4.67383C8.56836 5.20508 8.43555 5.83594 7.9707 6.20117L6.60938 7.33008C7.50586 8.85742 8.76758 10.1191 10.2949 11.0156L11.4238 9.6543C11.7891 9.18945 12.4199 9.05664 12.9512 9.28906ZM15.1426 15.5312L15.8398 12.2441L12.5195 10.8164L11.5566 12.0117C11.0586 12.6094 10.1953 12.7754 9.49805 12.377C7.73828 11.3477 6.27734 9.88672 5.24805 8.12695C4.84961 7.42969 5.01562 6.56641 5.61328 6.06836L6.80859 5.10547L5.38086 1.78516L2.09375 2.48242C2.19336 9.6543 7.9707 15.4316 15.1426 15.5312Z"/>
</svg>
