<svg fill="none" width="21" height="17" viewBox="0 0 21 17" xmlns="http://www.w3.org/2000/svg">
<path fill="#ffffff" d="M5.625 2.5625C5.30859 2.5625 5.0625 2.84375 5.0625 3.125V11C5.0625 11.3164 5.30859 11.5625 5.625 11.5625H6.15234L8.57812 8.25781C8.75391 8.04688 9 7.90625 9.24609 7.90625C9.52734 7.90625 9.77344 8.04688 9.94922 8.25781L10.3711 8.85547L12.1992 6.04297C12.375 5.83203 12.6211 5.65625 12.9375 5.65625C13.2188 5.65625 13.4648 5.83203 13.6406 6.04297L17.2266 11.5625H18C18.2812 11.5625 18.5625 11.3164 18.5625 11V3.125C18.5625 2.84375 18.2812 2.5625 18 2.5625H5.625ZM3.375 3.125C3.375 1.89453 4.35938 0.875 5.625 0.875H18C19.2305 0.875 20.25 1.89453 20.25 3.125V11C20.25 12.2656 19.2305 13.25 18 13.25H5.625C4.35938 13.25 3.375 12.2656 3.375 11V3.125ZM1.6875 3.96875V11.8438C1.6875 13.5664 3.05859 14.9375 4.78125 14.9375H16.0312C16.4883 14.9375 16.875 15.3242 16.875 15.7812C16.875 16.2734 16.4883 16.625 16.0312 16.625H4.78125C2.10938 16.625 0 14.5156 0 11.8438V3.96875C0 3.51172 0.351562 3.125 0.84375 3.125C1.30078 3.125 1.6875 3.51172 1.6875 3.96875ZM9 4.8125C9 5.44531 8.47266 5.9375 7.875 5.9375C7.24219 5.9375 6.75 5.44531 6.75 4.8125C6.75 4.21484 7.24219 3.6875 7.875 3.6875C8.47266 3.6875 9 4.21484 9 4.8125Z"/>
</svg>
