<svg fill="none" width="22" height="21" viewBox="0 0 22 21" xmlns="http://www.w3.org/2000/svg">
<path fill="#ffffff" d="M16.8594 16.1322C18.2656 14.6869 19.125 12.6947 19.125 10.5072C19.125 6.05412 15.4531 2.38225 11 2.38225C6.50781 2.38225 2.875 6.05412 2.875 10.5072C2.875 12.6947 3.69531 14.6869 5.10156 16.1322C5.84375 14.2963 7.64062 13.0072 9.75 13.0072H12.25C14.3203 13.0072 16.1172 14.2963 16.8594 16.1322ZM15.2969 17.4213C15.0234 15.976 13.7344 14.8822 12.25 14.8822H9.75C8.22656 14.8822 6.9375 15.976 6.66406 17.4213C7.91406 18.2026 9.39844 18.6322 11 18.6322C12.5625 18.6322 14.0469 18.2026 15.2969 17.4213ZM11 20.5072C7.40625 20.5072 4.125 18.6322 2.32812 15.5072C0.53125 12.4213 0.53125 8.63225 2.32812 5.50725C4.125 2.42131 7.40625 0.507248 11 0.507248C14.5547 0.507248 17.8359 2.42131 19.6328 5.50725C21.4297 8.63225 21.4297 12.4213 19.6328 15.5072C17.8359 18.6322 14.5547 20.5072 11 20.5072ZM11 9.88225C11.5469 9.88225 12.0547 9.60881 12.3281 9.101C12.6016 8.63225 12.6016 8.04631 12.3281 7.5385C12.0547 7.06975 11.5469 6.75725 11 6.75725C10.4141 6.75725 9.90625 7.06975 9.63281 7.5385C9.35938 8.04631 9.35938 8.63225 9.63281 9.101C9.90625 9.60881 10.4141 9.88225 11 9.88225ZM7.5625 8.31975C7.5625 7.10881 8.1875 5.976 9.28125 5.351C10.3359 4.76506 11.625 4.76506 12.7188 5.351C13.7734 5.976 14.4375 7.10881 14.4375 8.31975C14.4375 9.56975 13.7734 10.7026 12.7188 11.3276C11.625 11.9135 10.3359 11.9135 9.28125 11.3276C8.1875 10.7026 7.5625 9.56975 7.5625 8.31975Z"/>
</svg>
