<svg width="197" height="57" viewBox="0 0 197 57" fill="none" xmlns="http://www.w3.org/2000/svg">
<path d="M47.7692 0H0V55.991H47.7692V0Z" fill="white"/>
<path d="M15.9257 16.0041H0V0L15.9257 16.0041Z" fill="#FFDE12"/>
<path d="M23.8885 0H15.9257V15.9963H23.8885V0Z" fill="#E94258"/>
<path d="M31.8435 16.0041V32.0004C27.4502 32.0004 23.8807 28.423 23.8807 24.0062C23.8807 19.5894 27.4424 16.012 31.8435 16.012" fill="#FFDE12"/>
<path d="M31.8435 16.0041V0C36.2368 0 39.8064 3.5774 39.8064 7.99423C39.8064 12.4111 36.2447 15.9885 31.8435 15.9885" fill="#00B1AA"/>
<path d="M47.7692 31.9926H31.8435V16.0041L47.7692 31.9926Z" fill="#12314E"/>
<path d="M15.9257 23.9984H0V31.9926H15.9257V23.9984Z" fill="#00B1AA"/>
<path d="M0 47.9889V31.9926H15.9257L0 47.9889Z" fill="#12314E"/>
<path d="M19.9032 55.9909H3.97751C3.97751 51.5741 7.53921 47.9967 11.9404 47.9967C16.3415 47.9967 19.9032 51.5741 19.9032 55.9909Z" fill="#FFDE12"/>
<path d="M31.8435 55.991V39.9947H15.9257L31.8435 55.991Z" fill="#E94258"/>
<path d="M47.7692 39.9947H31.8435V47.9889H47.7692V39.9947Z" fill="#00B1AA"/>
<path d="M178.901 7.2254C178.054 6.63701 176.963 6.28398 175.928 5.90741C174.006 5.25626 172.868 4.78555 172.868 3.82844C172.868 3.4911 173.002 3.25574 173.292 3.04392C173.731 2.74581 174.477 2.57321 175.379 2.57321C177.371 2.57321 178.94 3.63231 178.956 3.63231L180.156 1.64749C180.062 1.59257 178.03 0.21182 175.379 0.21182C171.895 0.21182 170.656 2.07897 170.656 3.8206C170.656 4.51097 170.821 5.13858 171.15 5.68775C171.448 6.14277 171.833 6.53502 172.35 6.88806C173.198 7.45291 174.249 7.81379 175.245 8.16682C177.238 8.83366 178.438 9.3279 178.438 10.4027C178.438 11.4775 177.183 12.0737 175.928 12.0737C173.402 12.0737 172.531 10.7008 172.515 10.638V10.6537L170.617 11.854C170.687 11.9953 171.056 12.6229 171.911 13.227C172.39 13.58 172.947 13.8546 173.551 14.0507C174.273 14.3017 175.081 14.4194 175.928 14.4194C176.555 14.4194 177.144 14.341 177.701 14.1684C178.258 13.9879 178.752 13.7369 179.176 13.3995C180.133 12.6543 180.651 11.5716 180.651 10.3948C180.651 9.07686 180.062 8.00207 178.893 7.21755M158.323 5.45239C158.802 3.45187 160.261 2.36924 162.418 2.36924C164.45 2.36924 165.902 3.92258 166.106 5.45239H158.323ZM168.53 6.19768C168.459 4.51097 167.832 2.95763 166.78 1.84361C166.223 1.27092 165.58 0.823743 164.858 0.509936C164.105 0.196129 163.289 0.0235355 162.426 0.0235355C161.43 0.0235355 160.489 0.219665 159.641 0.596233C158.81 0.972801 158.088 1.49843 157.484 2.16527C156.338 3.48325 155.711 5.26411 155.711 7.23324C155.711 8.21389 155.899 9.15531 156.244 10.0418C156.574 10.9048 157.076 11.6736 157.68 12.3404C158.308 12.9916 159.029 13.5172 159.837 13.8703C160.669 14.2468 161.556 14.443 162.473 14.443C163.729 14.443 164.819 14.2076 165.761 13.7526C166.631 13.3211 167.369 12.7092 168.028 11.8697L166.333 10.3556C165.376 11.5716 164.231 12.0816 162.481 12.0816C160.026 12.0816 158.017 10.0183 157.923 7.42937H168.585L168.53 6.21337V6.19768ZM147.481 11.8697H145.559V2.57321H147.481C149.882 2.57321 151.835 4.67572 151.835 7.2254C151.835 9.77508 149.882 11.8776 147.481 11.8776M152.133 2.28294C151.522 1.63179 150.823 1.12186 150.047 0.768826C149.239 0.415794 148.368 0.219665 147.481 0.219665H143.347V14.2311H147.481C148.368 14.2311 149.231 14.0585 150.047 13.682C150.823 13.3289 151.522 12.819 152.133 12.1914C152.745 11.5402 153.2 10.7949 153.538 9.95552C153.891 9.09255 154.056 8.16682 154.056 7.2254C154.056 6.28398 153.891 5.35825 153.538 4.49528C153.208 3.67154 152.745 2.92625 152.133 2.2751M130.355 0.0235355C128.731 0.0235355 127.492 0.753136 126.629 1.71025V0.219665H124.416V14.2311H126.629V4.53451C126.903 3.93043 127.939 1.98483 130.081 1.98483C131.061 1.98483 132.921 2.3614 132.921 4.80909V14.2311H135.133V5.20135C135.133 1.23954 132.811 0.0235355 130.355 0.0235355ZM115.575 12.1129C113.049 12.1129 111.001 9.91629 111.001 7.2254C111.001 4.53451 113.049 2.35355 115.575 2.35355C118.101 2.35355 120.172 4.53451 120.172 7.2254C120.172 9.91629 118.109 12.1129 115.575 12.1129ZM121.851 4.41683C121.498 3.55386 121.02 2.76934 120.392 2.1182C119.764 1.45136 119.027 0.917885 118.235 0.564852C117.387 0.180439 116.501 0 115.575 0C114.649 0 113.771 0.172594 112.939 0.564852C112.123 0.917885 111.386 1.45136 110.782 2.1182C110.154 2.76934 109.66 3.55386 109.322 4.41683C108.954 5.30333 108.789 6.24475 108.789 7.2254C108.789 8.20604 108.954 9.14746 109.322 10.0497C109.652 10.9126 110.154 11.6815 110.782 12.3483C111.394 13.0151 112.131 13.5251 112.939 13.9016C113.771 14.2782 114.657 14.4743 115.575 14.4743C116.493 14.4743 117.379 14.2782 118.235 13.9016C119.027 13.5251 119.764 13.023 120.392 12.3483C121.02 11.6815 121.498 10.9126 121.851 10.0497C122.204 9.14746 122.385 8.20604 122.385 7.2254C122.385 6.24475 122.204 5.30333 121.851 4.41683ZM105.188 7.2254C104.341 6.63701 103.25 6.28398 102.215 5.90741C100.293 5.25626 99.1551 4.78555 99.1551 3.82844C99.1551 3.4911 99.2806 3.25574 99.5787 3.04392C100.026 2.74581 100.763 2.57321 101.666 2.57321C103.658 2.57321 105.227 3.63231 105.243 3.63231L106.443 1.64749C106.349 1.59257 104.317 0.21182 101.666 0.21182C98.1744 0.21182 96.9427 2.07897 96.9427 3.8206C96.9427 4.51097 97.1075 5.13858 97.4448 5.68775C97.7429 6.14277 98.1273 6.53502 98.6451 6.88806C99.4924 7.45291 100.544 7.81379 101.54 8.16682C103.533 8.83366 104.733 9.3279 104.733 10.4027C104.733 11.4775 103.478 12.0737 102.223 12.0737C99.6964 12.0737 98.8256 10.7008 98.8099 10.638V10.6537L96.9113 11.854C96.982 11.9953 97.3507 12.6229 98.2058 13.227C98.6844 13.58 99.2414 13.8546 99.8454 14.0507C100.567 14.3017 101.375 14.4194 102.223 14.4194C102.85 14.4194 103.439 14.341 103.996 14.1684C104.553 13.9958 105.047 13.7369 105.47 13.3995C106.428 12.6543 106.945 11.5716 106.945 10.3948C106.945 9.07686 106.357 8.00207 105.196 7.21755M92.6671 14.2233H94.8794V0.219665H92.6671V14.2311V14.2233ZM84.7356 12.6543C83.4098 12.6543 81.7623 12.1051 81.7623 9.71232C81.7623 8.14328 82.8136 6.88806 84.9161 6.88806C86.391 6.88806 87.4658 7.37446 88.0541 7.7118V11.1244C87.5364 11.7128 86.4459 12.6543 84.7356 12.6543ZM85.0495 0.21182C82.4292 0.21182 80.1384 1.07479 80.0521 1.11401L80.7895 3.13807C80.7895 3.13807 82.8371 2.36924 85.0495 2.36924C86.7126 2.36924 88.0541 3.8206 88.0541 5.58576V5.9231C87.2069 5.42886 85.9673 4.91892 84.5081 4.91892C81.7388 4.91892 79.3617 6.60563 79.3617 9.70447C79.3617 13.1799 81.8722 14.6155 84.3277 14.6155C85.936 14.6155 87.1912 13.8467 88.0541 13.0622V14.2233H90.2665V5.78973C90.2665 4.29915 89.733 2.90271 88.7367 1.84361C87.756 0.800207 86.4459 0.21182 85.0495 0.21182Z" fill="white"/>
<path d="M69.6023 8.36296L62.9418 0.156914L62.2357 14.2311H64.4481L64.856 6.12709L69.6023 11.9717L74.3408 6.12709L74.7488 14.2311H76.9611L76.2629 0.156914L69.6023 8.36296Z" fill="#E94258"/>
<path d="M195.251 27.8582C194.403 27.2698 193.313 26.9168 192.277 26.5402C190.355 25.889 189.218 25.4183 189.218 24.4612C189.218 24.1239 189.351 23.8885 189.641 23.6767C190.088 23.3786 190.826 23.206 191.728 23.206C193.721 23.206 195.29 24.2651 195.305 24.2651L196.506 22.2803C196.412 22.2175 194.38 20.8446 191.728 20.8446C188.237 20.8446 187.005 22.7118 187.005 24.4534C187.005 25.1438 187.17 25.7714 187.499 26.3205C187.798 26.7756 188.182 27.1678 188.7 27.5208C189.547 28.0935 190.598 28.4466 191.595 28.7996C193.587 29.4664 194.788 29.9607 194.788 31.0355C194.788 32.1103 193.532 32.7065 192.277 32.7065C189.751 32.7065 188.88 31.3336 188.865 31.2708V31.2944L186.966 32.4947C187.037 32.6359 187.405 33.2635 188.26 33.8676C188.739 34.2206 189.296 34.4952 189.9 34.6913C190.622 34.9424 191.43 35.0679 192.277 35.0679C192.905 35.0679 193.493 34.9894 194.05 34.809C194.607 34.6364 195.101 34.3775 195.525 34.0402C196.482 33.2949 197 32.2123 197 31.0355C197 29.7175 196.412 28.6427 195.251 27.8582ZM180.156 20.6563C178.532 20.6563 177.293 21.3859 176.43 22.343V20.8525H174.218V34.8639H176.43V25.1673C176.705 24.5554 177.74 22.6176 179.882 22.6176C180.862 22.6176 182.722 22.9863 182.722 25.4419V34.8639H184.934V25.8341C184.934 21.8723 182.612 20.6485 180.156 20.6485M165.376 32.7379C162.85 32.7379 160.802 30.5412 160.802 27.8503C160.802 25.1594 162.85 22.9785 165.376 22.9785C167.902 22.9785 169.973 25.1594 169.973 27.8503C169.973 30.5412 167.91 32.7379 165.376 32.7379ZM171.652 25.0418C171.299 24.1788 170.821 23.3943 170.193 22.7431C169.565 22.0763 168.828 21.5428 168.036 21.1898C167.188 20.7975 166.302 20.6171 165.376 20.6171C164.45 20.6171 163.572 20.7975 162.74 21.1898C161.932 21.5428 161.187 22.0763 160.583 22.7431C159.955 23.3943 159.461 24.1788 159.124 25.0418C158.755 25.9283 158.59 26.8697 158.59 27.8503C158.59 28.831 158.755 29.7724 159.124 30.6746C159.453 31.5376 159.955 32.3064 160.583 32.9732C161.195 33.6401 161.932 34.15 162.74 34.5266C163.572 34.8953 164.458 35.0914 165.376 35.0914C166.294 35.0914 167.181 34.8953 168.036 34.5266C168.828 34.15 169.565 33.6401 170.193 32.9732C170.821 32.3064 171.299 31.5376 171.652 30.6746C172.005 29.7724 172.186 28.831 172.186 27.8503C172.186 26.8697 171.997 25.9283 171.652 25.0418ZM154.346 34.8561H156.558V20.8446H154.346V34.8561ZM143.276 23.1982H146.783V34.8561H148.995V23.1982H152.502V20.8446H143.276V23.1982ZM136.631 33.287C135.306 33.287 133.658 32.7379 133.658 30.3451C133.658 28.7761 134.709 27.5208 136.812 27.5208C138.287 27.5208 139.362 28.0072 139.95 28.3446V31.7572C139.432 32.3456 138.342 33.287 136.631 33.287ZM136.945 20.8446C134.325 20.8446 132.034 21.7076 131.948 21.7468L132.685 23.7709C132.685 23.7709 134.733 23.002 136.945 23.002C138.608 23.002 139.95 24.4534 139.95 26.2185V26.5559C139.103 26.0616 137.863 25.5517 136.404 25.5517C133.635 25.5517 131.257 27.2384 131.257 30.3373C131.257 33.8127 133.768 35.2483 136.223 35.2483C137.832 35.2483 139.079 34.4795 139.95 33.695V34.8561H142.162V26.4147C142.162 24.9241 141.629 23.5277 140.632 22.4686C139.652 21.4251 138.342 20.8368 136.945 20.8368M127.021 34.8482H129.233V20.8368H127.021V34.8482ZM120.823 32.628C118.352 32.628 116.344 30.4706 116.344 27.8425C116.344 25.2144 118.352 23.0726 120.823 23.0726C121.859 23.0726 122.816 23.4257 123.608 24.0925L124.989 22.2489C124.401 21.7546 123.75 21.3859 123.067 21.1113C122.345 20.8603 121.592 20.7191 120.816 20.7191C119.913 20.7191 119.043 20.8995 118.211 21.2682C117.419 21.637 116.697 22.1469 116.069 22.7981C115.457 23.4649 114.979 24.2102 114.626 25.0731C114.273 25.9597 114.108 26.8775 114.108 27.8425C114.108 28.8075 114.273 29.7489 114.626 30.6275C114.979 31.4748 115.457 32.2358 116.069 32.8869C116.697 33.5538 117.419 34.0637 118.211 34.4167C119.043 34.7933 119.906 34.9894 120.816 34.9894C121.592 34.9894 122.345 34.8561 123.067 34.5815C123.75 34.3226 124.393 33.9303 124.989 33.4439L123.608 31.6003C122.816 32.2907 121.859 32.6437 120.823 32.6437M105.659 32.7379C103.133 32.7379 101.085 30.5412 101.085 27.8503C101.085 25.1594 103.133 22.9785 105.659 22.9785C108.185 22.9785 110.256 25.1594 110.256 27.8503C110.256 30.5412 108.193 32.7379 105.659 32.7379ZM111.935 25.0418C111.582 24.1788 111.103 23.3943 110.476 22.7431C109.848 22.0763 109.111 21.5428 108.318 21.1898C107.471 20.7975 106.584 20.6171 105.659 20.6171C104.733 20.6171 103.854 20.7975 103.023 21.1898C102.207 21.5428 101.469 22.0763 100.865 22.7431C100.238 23.3943 99.7435 24.1788 99.4061 25.0418C99.0374 25.9283 98.8726 26.8697 98.8726 27.8503C98.8726 28.831 99.0374 29.7724 99.4061 30.6746C99.7356 31.5376 100.238 32.3064 100.865 32.9732C101.477 33.6401 102.215 34.15 103.023 34.5266C103.854 34.8953 104.741 35.0914 105.659 35.0914C106.577 35.0914 107.463 34.8953 108.318 34.5266C109.111 34.15 109.848 33.6401 110.476 32.9732C111.103 32.3064 111.582 31.5376 111.935 30.6746C112.288 29.7724 112.468 28.831 112.468 27.8503C112.468 26.8697 112.288 25.9283 111.935 25.0418ZM95.2717 27.8503C94.4244 27.262 93.334 26.9089 92.2984 26.5324C90.3763 25.8812 89.2388 25.4105 89.2388 24.4534C89.2388 24.116 89.3721 23.8807 89.6624 23.6689C90.1017 23.3707 90.847 23.1982 91.7492 23.1982C93.7419 23.1982 95.3109 24.2573 95.3266 24.2573L96.5269 22.2724C96.4328 22.2097 94.4009 20.8368 91.7492 20.8368C88.266 20.8368 87.0264 22.7039 87.0264 24.4455C87.0264 25.1359 87.1912 25.7635 87.5285 26.3127C87.8266 26.7677 88.2111 27.16 88.7288 27.513C89.5761 28.0857 90.6274 28.4387 91.6237 28.7918C93.6164 29.4586 94.8167 29.9528 94.8167 31.0276C94.8167 32.1024 93.5615 32.6987 92.3062 32.6987C89.7801 32.6987 88.9093 31.3257 88.8936 31.263V31.2865L86.9951 32.4868C87.0657 32.628 87.4344 33.2557 88.2895 33.8597C88.7681 34.2128 89.3251 34.4873 89.9291 34.6835C90.6509 34.9345 91.459 35.06 92.3062 35.06C92.9338 35.06 93.5222 34.9816 94.0792 34.8012C94.6284 34.6286 95.1305 34.3697 95.5541 34.0323C96.5112 33.287 97.029 32.2044 97.029 31.0276C97.029 29.7096 96.4406 28.6349 95.2717 27.8503ZM83.5746 27.8503C82.7273 27.262 81.6368 26.9089 80.6012 26.5324C78.6792 25.8812 77.5416 25.4105 77.5416 24.4534C77.5416 24.116 77.6671 23.8807 77.9653 23.6689C78.4124 23.3707 79.1499 23.1982 80.0521 23.1982C82.0448 23.1982 83.6138 24.2573 83.6295 24.2573L84.8298 22.2724C84.7356 22.2097 82.7116 20.8368 80.0521 20.8368C76.561 20.8368 75.3293 22.7039 75.3293 24.4455C75.3293 25.1359 75.494 25.7635 75.8314 26.3127C76.1295 26.7677 76.5139 27.16 77.0317 27.513C77.879 28.0857 78.9302 28.4387 79.9266 28.7918C81.9192 29.4586 83.1195 29.9528 83.1195 31.0276C83.1195 32.1024 81.8643 32.6987 80.6091 32.6987C78.0829 32.6987 77.2121 31.3257 77.1964 31.263V31.2865L75.2979 32.4868C75.3685 32.628 75.7451 33.2557 76.5924 33.8597C77.0709 34.2128 77.6279 34.4873 78.232 34.6835C78.9538 34.9345 79.7618 35.06 80.6091 35.06C81.2367 35.06 81.8251 34.9816 82.3821 34.8012C82.9391 34.6286 83.4333 34.3697 83.857 34.0323C84.8141 33.287 85.3319 32.2044 85.3319 31.0276C85.3319 29.7096 84.7435 28.6349 83.5824 27.8503" fill="white"/>
<path d="M66.5192 30.4314L68.2922 26.093L70.0809 30.4314H66.5192ZM62.2357 34.8639H64.6677L65.7033 32.3927H70.8889L71.9245 34.8639H74.3565L68.2843 20.8524L62.2357 34.8639Z" fill="#E94258"/>
<path d="M159.712 52.4999C159.194 53.0882 158.104 54.0297 156.393 54.0297C155.068 54.0297 153.42 53.4805 153.42 51.0877V41.5872H151.027V51.0877C151.027 54.5631 153.53 55.991 155.985 55.991C157.594 55.991 158.841 55.2221 159.712 54.4455V55.6222H161.924V41.5872H159.712V52.4999ZM143.645 54.0297C142.319 54.0297 140.672 53.4805 140.672 51.0799C140.672 49.5108 141.723 48.2556 143.825 48.2556C145.3 48.2556 146.375 48.7499 146.964 49.0794V52.4999C146.446 53.0882 145.355 54.0297 143.645 54.0297ZM143.959 41.5794C141.339 41.5794 139.056 42.4424 138.961 42.4816L139.699 44.5056C139.699 44.5056 141.746 43.7368 143.959 43.7368C145.622 43.7368 146.964 45.1882 146.964 46.9612V47.2985C146.116 46.8121 144.877 46.3022 143.417 46.3022C140.648 46.3022 138.271 47.9889 138.271 51.0877C138.271 54.5631 140.782 55.991 143.229 55.991C144.837 55.991 146.093 55.2221 146.956 54.4455V55.6222H149.168V47.1651C149.168 45.6746 148.635 44.2781 147.638 43.219C146.665 42.1835 145.355 41.5951 143.951 41.5951M132.018 41.3833C130.395 41.3833 129.163 42.105 128.292 43.07V41.6029H126.08V55.6379H128.292V45.9256C128.567 45.298 129.602 43.3445 131.744 43.3445C132.725 43.3445 134.584 43.7211 134.584 46.1845V55.6379H136.796V46.5768C136.796 42.5993 134.474 41.3833 132.018 41.3833ZM114.351 46.8435C114.83 44.8273 116.289 43.7368 118.446 43.7368C120.478 43.7368 121.93 45.298 122.134 46.8435H114.351ZM124.55 47.5888C124.471 45.8942 123.852 44.333 122.8 43.2112C122.243 42.6463 121.6 42.1913 120.878 41.8775C120.125 41.5637 119.309 41.3911 118.446 41.3911C117.45 41.3911 116.509 41.5872 115.661 41.956C114.83 42.3325 114.116 42.8581 113.504 43.525C112.358 44.8508 111.731 46.6474 111.731 48.6087C111.731 49.5893 111.911 50.5307 112.264 51.4172C112.594 52.2802 113.096 53.049 113.7 53.7159C114.328 54.3592 115.049 54.8926 115.857 55.2457C116.689 55.6222 117.576 55.8184 118.493 55.8184C119.749 55.8184 120.839 55.583 121.773 55.128C122.643 54.6965 123.381 54.0924 124.04 53.2451L122.345 51.731C121.388 52.947 120.243 53.457 118.493 53.457C116.038 53.457 114.029 51.3937 113.935 48.8048H124.597L124.542 47.5888H124.55ZM108.044 52.5155C107.526 53.1039 106.435 54.0454 104.725 54.0454C103.399 54.0454 101.752 53.4962 101.752 51.1034V41.6029H99.359V51.1034C99.359 54.5788 101.862 56.0066 104.317 56.0066C105.925 56.0066 107.181 55.2378 108.044 54.4611V55.6379H110.256V41.6029H108.044V52.5155ZM92.1415 50.1228C90.1488 50.1228 89.0034 48.6479 89.0034 46.7337C89.0034 44.8194 90.1488 43.3445 92.1415 43.3445C93.836 43.3445 94.8559 44.3487 95.2952 44.9214V48.2792C94.9814 48.9303 94.1342 50.1228 92.1415 50.1228ZM95.2952 41.6029V42.7169C94.3695 41.854 93.1927 41.3833 91.7492 41.3833C88.7994 41.3833 86.7911 43.5407 86.7911 46.7337C86.7911 47.4633 86.9009 48.1536 87.1206 48.7812C87.3638 49.4481 87.709 50.0443 88.1718 50.5307C89.1289 51.5506 90.494 52.0762 92.1336 52.0762C93.5536 52.0762 94.5656 51.4486 95.2874 50.7033V51.1505C95.2874 53.5825 93.0515 53.8414 92.0944 53.8414C91.2314 53.8414 90.3999 53.6845 89.6232 53.3471C89.0348 53.1118 88.7053 52.8529 88.7053 52.8529L87.3952 54.3435C87.4344 54.3827 87.9129 54.7593 88.7053 55.1123C89.7566 55.5595 90.9333 55.8027 92.1023 55.8027C93.4516 55.8027 94.7069 55.4261 95.6247 54.7436C96.2131 54.3121 96.676 53.7865 96.9898 53.1353C97.3193 52.4449 97.5076 51.6447 97.5076 50.7582V41.5951H95.2952V41.6029ZM79.7853 54.0532C78.4595 54.0532 76.812 53.504 76.812 51.1034C76.812 49.5344 77.8633 48.2792 79.9658 48.2792C81.4407 48.2792 82.5155 48.7734 83.1039 49.1029V52.5234C82.5861 53.1118 81.4956 54.0532 79.7853 54.0532ZM80.0992 41.6029C77.4789 41.6029 75.1959 42.4659 75.1018 42.5051L75.8392 44.5292C75.8392 44.5292 77.8868 43.7603 80.0992 43.7603C81.7623 43.7603 83.1039 45.2117 83.1039 46.9847V47.322C82.2566 46.8356 81.017 46.3257 79.5578 46.3257C76.7885 46.3257 74.4114 48.0124 74.4114 51.1113C74.4114 54.5867 76.9219 56.0145 79.3696 56.0145C80.9778 56.0145 82.233 55.2457 83.096 54.469V55.6458H85.3083V47.1887C85.3083 45.6981 84.7749 44.3017 83.7785 43.2426C82.7979 42.207 81.4877 41.6186 80.0913 41.6186" fill="white"/>
<path d="M70.7399 47.1338H64.4481V41.5794H62.2357V55.6144H64.4481V49.4873H70.7399V55.6144H72.9522V41.5794H70.7399V47.1338Z" fill="#E94258"/>
</svg>
